# Blender v3.2.0 OBJ File: ''
# www.blender.org
o Shoe_Cube
v 0.479116 0.396131 0.639377
v -0.479116 0.396131 0.639377
v -0.211780 -0.120867 1.029005
v 0.211780 -0.120867 1.029005
v 0.211780 -0.262054 1.029005
v -0.211780 -0.262054 1.029005
v -0.687950 0.349181 -0.333578
v -0.687950 0.807815 -0.333578
v -0.565384 0.638437 -1.065278
v -0.565384 0.206901 -1.073080
v -0.479116 -0.562101 0.639377
v 0.479116 -0.562101 0.639377
v 0.211780 -0.544427 1.029005
v -0.211780 -0.544427 1.029005
v 0.479116 0.076720 0.639377
v 0.565384 0.638437 -1.065278
v 0.565384 0.206901 -1.073080
v 0.687950 0.807815 -0.333578
v 0.687950 0.349181 -0.333578
v -0.565384 -0.546944 -1.073080
v 0.565384 -0.546944 -1.073080
v 0.687950 -0.568085 -0.333578
v -0.687950 -0.568085 -0.333578
v -0.479116 0.076720 0.639377
v -0.479116 -0.242691 0.639377
v -0.687950 -0.109452 -0.333578
v -0.211780 -0.403240 1.029005
v 0.687950 -0.109452 -0.333578
v 0.479116 -0.242691 0.639377
v 0.565384 -0.170021 -1.073080
v -0.565384 -0.170021 -1.073080
v 0.211780 -0.403240 1.029005
vt 0.625000 0.666667
vt 0.875000 0.666667
vt 0.875000 0.750000
vt 0.625000 0.750000
vt 0.541667 0.750000
vt 0.625000 1.000000
vt 0.541667 1.000000
vt 0.541667 0.166667
vt 0.625000 0.166667
vt 0.625000 0.250000
vt 0.541667 0.250000
vt 0.125000 0.666667
vt 0.375000 0.666667
vt 0.375000 0.750000
vt 0.125000 0.750000
vt 0.541667 0.666667
vt 0.625000 0.500000
vt 0.541667 0.500000
vt 0.625000 0.583333
vt 0.541667 0.583333
vt 0.125000 0.500000
vt 0.375000 0.500000
vt 0.375000 0.583333
vt 0.125000 0.583333
vt 0.541667 0.000000
vt 0.625000 0.000000
vt 0.625000 0.083333
vt 0.541667 0.083333
vt 0.875000 0.500000
vt 0.875000 0.583333
vt 0.375000 0.083333
vt 0.458333 0.083333
vt 0.458333 0.166667
vt 0.375000 0.166667
vt 0.375000 0.000000
vt 0.458333 0.000000
vt 0.458333 0.583333
vt 0.458333 0.666667
vt 0.458333 0.500000
vt 0.375000 0.250000
vt 0.458333 0.250000
vt 0.458333 0.750000
vt 0.458333 1.000000
vt 0.375000 1.000000
vn 0.0000 0.6019 0.7986
vn 0.0000 -0.0000 1.0000
vn -0.9865 -0.0000 -0.1638
vn -0.9864 0.0014 -0.1647
vn -0.9865 0.0006 -0.1640
vn 0.0000 -0.9990 0.0453
vn 0.8246 -0.0000 0.5658
vn 0.0000 0.0181 -0.9998
vn 0.9865 0.0006 -0.1640
vn 0.9864 0.0014 -0.1647
vn 0.9865 -0.0001 -0.1637
vn 0.9777 -0.0000 0.2099
vn 0.0000 -0.9996 -0.0286
vn 0.0000 -1.0000 0.0062
vn -0.8246 -0.0000 0.5658
vn -0.9777 -0.0000 0.2099
vn 0.0000 0.9742 -0.2255
vn 0.0000 0.9210 0.3897
vn 0.9865 -0.0000 -0.1635
vn 0.0000 0.0000 -1.0000
vn -0.9865 -0.0000 -0.1635
s 1
f 1/1/1 2/2/1 3/3/1 4/4/1
f 5/5/2 4/4/2 3/6/2 6/7/2
f 7/8/3 8/9/4 9/10/4 10/11/5
f 11/12/6 12/13/6 13/14/6 14/15/6
f 15/16/7 1/1/7 4/4/7 5/5/7
f 10/11/8 9/10/8 16/17/8 17/18/8
f 17/18/9 16/17/10 18/19/10 19/20/11
f 19/20/12 18/19/12 1/1/12 15/16/12
f 20/21/13 21/22/13 22/23/13 23/24/13
f 23/24/14 22/23/14 12/13/14 11/12/14
f 6/25/15 3/26/15 2/27/15 24/28/15
f 24/28/16 2/27/16 8/9/16 7/8/16
f 16/17/17 9/29/17 8/30/17 18/19/17
f 18/19/18 8/30/18 2/2/18 1/1/18
f 11/31/16 25/32/16 26/33/16 23/34/16
f 25/32/16 24/28/16 7/8/16 26/33/16
f 14/35/15 27/36/15 25/32/15 11/31/15
f 27/36/15 6/25/15 24/28/15 25/32/15
f 22/23/12 28/37/12 29/38/12 12/13/12
f 28/37/12 19/20/12 15/16/12 29/38/12
f 21/22/19 30/39/19 28/37/19 22/23/19
f 30/39/19 17/18/9 19/20/11 28/37/19
f 20/40/20 31/41/20 30/39/20 21/22/20
f 31/41/20 10/11/20 17/18/20 30/39/20
f 12/13/7 29/38/7 32/42/7 13/14/7
f 29/38/7 15/16/7 5/5/7 32/42/7
f 23/34/21 26/33/21 31/41/21 20/40/21
f 26/33/21 7/8/3 10/11/5 31/41/21
f 13/14/2 32/42/2 27/43/2 14/44/2
f 32/42/2 5/5/2 6/7/2 27/43/2
